<?xml version="1.0" encoding="utf-8"?>
<!-- Generator: Adobe Illustrator 21.0.2, SVG Export Plug-In . SVG Version: 6.00 Build 0)  -->
<svg version="1.1" id="Layer_1" xmlns="http://www.w3.org/2000/svg" xmlns:xlink="http://www.w3.org/1999/xlink" x="0px" y="0px"
	 viewBox="0 0 1504 1504" style="enable-background:new 0 0 1504 1504;" xml:space="preserve">
<style type="text/css">
	.st0{stroke:#000000;stroke-miterlimit:10;}
	.st1{fill:#D3E963;}
	.st2{fill:#426793;}
	.st3{fill:#7F30E5;}
	.st4{fill:none;stroke:#7F30E5;stroke-miterlimit:10;}
	.st5{fill:#299B2B;}
	.st6{fill:#FFFFFF;}
	.st7{fill:#7F30E5;stroke:#FFFFFF;stroke-width:22;stroke-linecap:square;stroke-miterlimit:10;}
	.st8{fill:none;stroke:#000000;stroke-miterlimit:10;}
	.st9{fill:#7F30E5;stroke:#FFFFFF;stroke-width:8;stroke-linecap:square;stroke-miterlimit:10;}
	.st10{fill:#8CB275;}
	.st11{fill:#E5E5E5;}
	.st12{fill:#5B724C;}
	.st13{fill:none;}
</style>
<rect class="st0" width="1503" height="1503"/>
<circle class="st0" cx="752" cy="752" r="751.5"/>
<g>
	<g>
		<path class="st1" d="M492.8,824.4c-0.8,18.9-1.7,38-6,56.4c-4.3,18.4-12.4,36.3-25.7,49.3c-2,1.9-4.3,3.8-7.1,3.9l0.1,0.8
			c-9.1,2.8-19.4,1.1-27.2-4.4c-6.1,21-12.3,42.5-11.2,64.5c1.4,27.7,14.4,54.5,11.1,82.1c-0.2,1.7-0.5,3.5-1.7,4.6
			c-1.5,1.5-3.8,1.5-5.9,1.4c-19.7-0.9-39.4-2.2-59-4.1c-3-0.3-6.1-0.6-8.7-2.2c-7.8-4.8-6.3-16.7-4.1-25.8
			c9.4-37.7,13.9-76.7,13.5-115.7c0-2.4,0-5.1,1.4-7c1.4-2,3.9-2.9,6.2-3.7c24.2-8.9,42.6-32.7,45.8-59"/>
		<g>
			<path d="M491.3,824.4c-0.9,20.6-1.8,41.5-7.3,61.5c-2.4,8.7-5.7,17.2-10.2,25.1c-2.3,4.1-4.9,7.9-7.8,11.6
				c-2.9,3.5-7.1,9.3-11.9,9.9c-1,0.1-1.6,0.9-1.4,1.9c0,0.3,0.1,0.5,0.1,0.8c0.3-0.6,0.7-1.2,1-1.8c-9.1,2.6-18.2,1-26-4.3
				c-0.8-0.6-1.9,0-2.2,0.9c-4.3,14.9-8.6,29.8-10.5,45.2c-1.9,15.6-0.1,30.7,3.2,46c3.4,15.4,7.7,30.8,7.7,46.7
				c0,3.2,0.4,8.2-1,11.1c-2,4-9,2.3-12.6,2.1c-8.5-0.4-17.1-0.9-25.6-1.5c-8.5-0.6-17-1.3-25.5-2.1c-4-0.4-8.3-0.8-11.1-4.1
				c-2.2-2.6-2.8-6-2.9-9.3c-0.2-6.9,2-13.6,3.5-20.2c1.9-8.1,3.5-16.2,4.9-24.4c2.7-15.5,4.6-31.2,5.7-46.9
				c0.6-8.3,1-16.6,1.1-24.9c0.1-3.8,0.1-7.7,0.1-11.5c0-2.7-0.1-4.5,1.5-6.8c1.7-2.4,3.7-2.9,6.3-4c24.9-9.8,42.1-33.7,45.5-60
				c0.2-1.9-2.8-1.9-3,0c-1.9,14.7-8.3,28.5-18.3,39.5c-4.6,5.1-9.9,9.5-15.8,13c-3,1.8-6.1,3.3-9.3,4.6c-2.7,1.1-5.7,1.8-7.7,4.1
				c-4,4.5-2.2,12.8-2.3,18.2c-0.1,8.9-0.5,17.9-1.1,26.8c-1.3,18.3-3.6,36.6-7.1,54.6c-1.6,8.4-3.5,16.6-5.5,24.9
				c-1.3,5.4-2.3,11.1-1.4,16.6c2.4,14.4,18.2,12.9,29.5,13.9c9.2,0.8,18.4,1.4,27.5,1.9c4.3,0.2,8.5,0.5,12.8,0.7
				c3.1,0.1,7.3,1,10.2-0.5c4.5-2.2,4.1-8.9,4.3-13.1c0.3-7.9-0.6-15.8-2-23.5c-3.3-19-9.6-37.5-9.7-56.9
				c-0.1-20.3,5.7-40,11.3-59.4c-0.7,0.3-1.5,0.6-2.2,0.9c8.4,5.7,18.5,7.4,28.3,4.6c0.8-0.2,1.2-1,1-1.8c0-0.3-0.1-0.5-0.1-0.8
				c-0.5,0.6-1,1.3-1.4,1.9c7.7-0.9,13.5-9.6,17.6-15.5c5.8-8.2,10.1-17.5,13.3-27c7.3-22,8.3-45.5,9.3-68.5
				C494.4,822.4,491.4,822.4,491.3,824.4L491.3,824.4z"/>
		</g>
	</g>
	<g>
		<path class="st2" d="M352.4,1034.1c21.5,7.4,44.5,9.7,67,6.9c2.4-0.3,5.4-0.4,6.7,1.7c0.5,0.8,0.7,1.9,0.8,2.8
			c1.3,10.2,1.9,20.5,1.8,30.8c0,1.5-0.1,3.2-0.9,4.4c-1.5,2.1-4.4,2.2-6.9,2c-19.5-1.3-39.1-2.7-58.6-4.2c-5.2-0.4-10.8-1-14.5-4.8
			c-4.2-4.3-4.4-11.3-3.3-17.3c1.5-8,4.9-15.5,9.8-21.9"/>
		<g>
			<path d="M352,1035.6c17,5.7,34.8,8.5,52.8,8.1c4.9-0.1,9.7-0.7,14.6-1.1c3.8-0.3,5.7,0.9,6.2,4.9c0.2,1.9,0.4,3.8,0.6,5.8
				c0.5,5.1,0.8,10.3,0.9,15.4c0.1,2.3,0.6,5.5,0.1,7.7c-1.5,5.7-3.7,5.1-7.3,4.9c-19.4-1.2-38.9-2.5-58.3-4.2
				c-4.4-0.4-9.5-0.9-12.7-4.3c-3.2-3.3-3.7-8.3-3.3-12.7c0.8-9,4.8-17.6,10.1-24.7c1.2-1.6-1.5-3-2.6-1.5
				c-7.2,9.7-15.9,28.4-7.4,39.7c3.6,4.8,9.6,5.9,15.3,6.4c9.9,0.9,19.8,1.5,29.7,2.2c10.1,0.7,20.2,1.8,30.3,2.1
				c6.5,0.2,9.3-2.4,9.4-8.9c0.1-9.8,0-20.2-1.8-29.8c-1.1-6.3-5.2-6.4-10.8-5.8c-21.9,2.4-43.9,0-64.8-7.1
				C351,1032,350.2,1034.9,352,1035.6L352,1035.6z"/>
		</g>
	</g>
</g>
<g>
	<path class="st1" d="M288,709c-32.8-29.7-77.2-40.6-118.7-55c-41.5-14.4-84.6-36-103.4-76.7c-10.7,5.4-15.2,21.2-9.9,32
		c9.7,19.6,60.6,52.9,84.6,60.9c21.4,7.2,44.2,16.2,66.2,21c21.8,4.7,42.3,15.5,58.8,30.8c2.1-1.8,4.2-3.7,6.4-5.5"/>
	<g>
		<path d="M289.1,708c-52.7-47.1-130-46.5-185.9-88.4c-15.2-11.4-27.9-25.7-36-43c-0.4-0.7-1.4-0.9-2.1-0.5
			c-13.1,7.1-16.5,25.3-8.5,37.4c8.1,12.2,21,21.7,32.8,30.1c13.5,9.6,27.9,18.6,43.1,25.2c8.5,3.7,17.4,6.3,26.2,9.4
			c12.2,4.3,24.4,8.6,36.9,12c12.5,3.4,24.9,5.9,36.7,11.4c11.8,5.5,22.6,12.9,32.2,21.7c0.6,0.6,1.5,0.5,2.1,0
			c2.1-1.8,4.2-3.7,6.4-5.5c1.5-1.3-0.7-3.4-2.1-2.1c-2.1,1.8-4.2,3.7-6.4,5.5c0.7,0,1.4,0,2.1,0c-14.5-13.3-31.8-23.4-50.8-29
			c-10.6-3.1-21.5-5.3-32.1-8.6c-11.4-3.6-22.7-7.7-34.1-11.7c-29.8-10.4-58.5-27.1-81.3-49.2c-4.8-4.7-10.1-10-12.2-16.6
			c-3.3-10,1-22.3,10.4-27.4c-0.7-0.2-1.4-0.4-2.1-0.5c30.4,64.5,108.5,75.4,167.7,99.4c19.8,8,38.7,18.2,54.7,32.5
			C288.4,711.4,290.5,709.3,289.1,708L289.1,708z"/>
	</g>
</g>
<g>
	<path class="st1" d="M302.8,692c-31.1-35.6-66.6-61.5-111.1-72c-31-7.3-39.6-28.5-46.9-45.6c-6.4-15.1-6.7-20.9-5.1-37.4
		c0.5-5.6,2-11.2,1.6-16.7c-0.4-5.6-3.4-11.5-8.7-12.9c-3.8-1-7.9,0.6-11.2,3c-14.5,11-12.5,33.8-6.1,50.9
		c11.3,29.6,31.7,55.2,57.7,72.3c39.3,25.8,92.3,34.2,117.3,74.7"/>
	<g>
		<path d="M303.8,691c-27.4-31.2-60.8-57.4-101.1-69.5c-10.1-3-20.3-4.7-29.4-10.3c-7.2-4.4-13.1-10.6-17.6-17.8
			c-8.6-13.6-16-30.4-15.3-46.7c0.3-5.9,1-11.8,1.8-17.6c0.7-4.9,1-10-0.8-14.7c-2.8-7.1-9.6-10.6-16.8-7.5
			c-16.2,6.9-17.3,28.3-14.2,43c4,18.9,14.5,37.1,26.3,52.1c12.5,16,28.1,29.1,45.8,39.1c36.3,20.4,83,30.6,106.6,68
			c1,1.6,3.6,0.1,2.6-1.5c-19-30.2-53.2-43.1-84.2-57.3c-17.1-7.9-33.9-16.6-48.2-28.9c-15.4-13.2-27.9-29.6-36.9-47.7
			c-7.8-15.8-15.9-38-6.3-54.7c2.6-4.5,7.1-9.1,12.4-10c7.9-1.3,11.3,6.7,11.4,13.3c0.2,10.4-3,20.6-2.4,31.1
			c0.5,8.1,3.3,15.5,6.4,22.9c2.6,6.1,5.2,12.2,8.7,17.8c8.1,13.3,20.5,22.5,35.5,26.7c11.5,3.2,22.8,6.2,33.8,11
			c9.8,4.3,19.3,9.5,28.2,15.4c19.3,12.7,36.3,28.7,51.5,46C303,694.5,305.1,692.4,303.8,691L303.8,691z"/>
	</g>
</g>
<g>
	<path class="st1" d="M271,718c-17.6-16-26.9-40-29.3-64.2c-2.4-24.2,1.5-48.7,7-72.5c9.6-41.7,25.2-84,55.6-113.5
		c2.5-2.4,5.8-4.8,8.9-3.4c4.1,1.8,3.1,8.1,1.2,12.3c-12,27.8-31.6,51.7-43,79.9c-20.4,50.6-19.6,75.2-4.8,127.3
		c8,17.7,19.7,26.7,21.6,25.8"/>
	<g>
		<path d="M272,717c-30.5-28.3-33-73.1-26.7-111.6c6-36.8,16.6-74.8,36.3-106.7c5-8.1,10.6-15.8,17-22.8c2.2-2.4,6.6-8.8,9.9-9.5
			c0.9,0.3,1.9,0.5,2.8,0.8c2.3-0.3,3.3,0.5,3.1,2.5c0.2,0.8-0.3,2.8-0.4,3.2c-0.6,2.5-1.7,4.8-2.8,7.1
			c-8.1,17.5-18.9,33.4-28.4,50.1c-16.6,29.2-29.8,63.7-28.5,97.8c0.3,8.5,1.5,17.1,3.1,25.4c2,10.2,3.9,21.3,7.7,31
			c3,7.8,8.4,15.4,14.3,21.3c1.9,1.9,6,6.4,9.2,5.5c1.9-0.5,1.1-3.4-0.8-2.9c-1,0.3-3.8-2.4-4.4-3c-2.9-2.5-5.4-5.5-7.7-8.6
			c-6.4-8.8-9.2-18.4-11.9-28.9c-4.3-17-7.3-34.4-6.3-52c2.4-39.7,22.5-74.7,42.3-108c5.2-8.7,10.2-17.6,14.5-26.9
			c2-4.4,5.4-11.6,1.6-16.1c-5-5.7-12,1.4-15.5,5c-6.2,6.4-11.9,13.4-16.9,20.8c-21.5,31.5-32.6,69.5-39.7,106.6
			c-7.9,41.7-7.3,91.1,26.1,122.1C271.3,720.4,273.4,718.3,272,717L272,717z"/>
	</g>
</g>
<g>
	<path class="st2" d="M91.3,605.2c-12.7,5.4-26.5,9.8-39.9,7.1s-25.7-14.5-25-28.6c0.8-14,13-23.9,21.2-35.2
		c7.1-9.6,11.6-21.2,12.9-33.2c3.1,14.5,6.8,30,17.5,39.9c2.4-3,4-6.6,4.7-10.4c2.7,8.7,5.3,17.5,8,26.2c3.1,10.1,6.1,21.3,1.6,31
		C94,599.9,91.3,605.2,91.3,605.2z"/>
	<g>
		<path d="M90.9,603.7c-13.2,5.6-28.8,10.9-43.1,6.1c-12.1-4.1-22.1-16-19.5-29.3c2.4-12,12.6-20.6,19.7-30
			c7.8-10.3,12.4-22.3,14-35.1c-1,0.1-2,0.3-2.9,0.4c3.2,14.6,6.8,29.8,17.9,40.6c0.7,0.7,1.8,0.5,2.4-0.3c2.4-3.3,3.9-6.8,4.8-10.8
			c-1,0-1.9,0-2.9,0c2.9,9.5,5.9,19.1,8.7,28.7c2.7,9.1,4.7,18.6,0.9,27.8c-0.6,1.4,1.6,2.5,2.5,1.5c-0.2,0-0.3,0-0.5,0
			c-0.5-0.6-1-1.3-1.4-1.9c-0.2,1.1-0.9,2.2-1.4,3.2c-0.9,1.7,1.7,3.2,2.6,1.5c0.6-1.2,1.5-2.6,1.7-3.9c0.2-0.9-0.4-2-1.4-1.9
			c-0.8,0.1-1.1,0.3-1.6,0.9c0.8,0.5,1.7,1,2.5,1.5c3.5-8.5,2.3-17.5,0-26.1c-2.9-10.7-6.4-21.3-9.6-31.9c-0.4-1.3-2.6-1.5-2.9,0
			c-0.8,3.7-2.2,7-4.5,10.1c0.8-0.1,1.6-0.2,2.4-0.3C68.4,543.9,65,529,62,515c-0.4-1.8-2.8-1.1-2.9,0.4
			c-2.1,17-10.4,29.9-21.1,42.7c-7.6,9.1-15.2,19.7-12.4,32.2c2.4,10.9,11.8,19.3,22.2,22.6c14.7,4.6,30.5-0.6,44-6.3
			C93.4,605.9,92.7,603,90.9,603.7z"/>
	</g>
</g>
<g>
	<path class="st2" d="M157.1,443.5c-6.9,9.1-16.4,15.6-25.8,21.9c-9.3,6.4-18.8,13-25.6,22.1s-10.5,21.6-6.8,32.3
		c2.7,7.8,8.9,13.7,14.8,19.2c4.4,4.1,9.1,8.3,14.9,10c10.2,2.9,21.4-3,28-11.7c6.6-8.7,9.7-19.5,12.7-30.1
		c3.5-12.7,7.1-25.4,10.6-38.1c-1.8,3.4-5.9,5.2-9.5,4.2c5.5-12.6,13.6-23.9,23.6-33c-4.5-3.7-11.1-0.8-16.7,1
		c-5.6,1.8-13.9,0.1-13.7-5.9c-2.9,3.4-5.9,6.7-8.8,10.1"/>
	<g>
		<path d="M156,442.4c-11.4,14.5-28.5,22.1-42.1,34.1c-11.3,10-20.7,25-17.3,40.7c1.7,7.8,6.9,14,12.5,19.4
			c5.5,5.4,11.5,11.5,19.1,13.7c14.4,4.2,27.8-7.4,34.1-19.2c4.4-8.3,6.8-17.5,9.3-26.5c3.3-11.8,6.5-23.5,9.8-35.3
			c0.5-1.7-1.8-2.5-2.7-1.2c-1.8,2.8-4.5,4.1-7.8,3.5c0.3,0.7,0.6,1.5,0.9,2.2c5.5-12.4,13.4-23.5,23.4-32.7
			c0.8-0.7,0.5-1.8-0.3-2.4c-4.2-2.9-8.9-2-13.6-0.6c-4.3,1.3-15.7,5-16.2-3c-0.1-1.2-1.6-2.1-2.6-1.1c-2.9,3.4-5.9,6.7-8.8,10.1
			c-1.3,1.4,0.8,3.6,2.1,2.1c2.9-3.4,5.9-6.7,8.8-10.1c-0.9-0.4-1.7-0.7-2.6-1.1c0.3,4.8,3.9,7.2,8.4,7.9c7.6,1.1,16-6.3,22.8-1.7
			c-0.1-0.8-0.2-1.6-0.3-2.4c-10.2,9.4-18.2,20.7-23.8,33.3c-0.4,0.8-0.2,2,0.9,2.2c4.7,0.8,8.6-1,11.2-4.9
			c-0.9-0.4-1.8-0.8-2.7-1.2c-4.5,16.1-8.5,32.5-13.7,48.5c-4.5,13.8-13.8,31-30.6,31.1c-8.5,0.1-14.8-6-20.6-11.4
			c-5.9-5.5-12-11.6-13.9-19.6c-3.9-16.2,7-31,18.9-40.7c13.2-10.8,28.8-18.4,39.5-31.9C159.3,443,157.2,440.9,156,442.4L156,442.4z
			"/>
	</g>
</g>
<g>
	<path class="st2" d="M327.2,409.8c-1.6,4.3-3.3,8.8-6.9,11.5c-3.6,2.7-9.7,2.3-11.4-1.9c-6.9,13.3-16.2,25.3-27.3,35.1
		c-3.5,3.1-7.3,6.1-9.6,10.3c-3.8,7-2.3,16.1,1.7,22.8c4.1,6.8,10.3,11.8,16.4,16.7c3,2.4,6.2,4.9,10,5.5c5.9,0.9,11.4-3,15.8-7.2
		c26.5-25.4,16.5-100.5,17.4-99.8L327.2,409.8z"/>
	<g>
		<path d="M325.8,409.4c-1.3,3.5-2.6,7.3-5.4,9.9c-2.9,2.7-8,3.3-10.2-0.6c-0.5-1-2.1-1-2.6,0c-5.6,10.7-12.6,20.5-21.1,29.1
			c-6.9,7-16.5,12.5-18,23c-1.5,10.5,4.3,20,11.6,27c6.3,6.1,15.5,15.6,25.2,13.2c14.3-3.5,22.1-20.6,25.6-33.4
			c4.1-14.7,5.1-30.2,5.1-45.3c0-6.6-0.2-13.3-0.6-19.9c-0.1-2.2-0.3-4.4-0.4-6.6c0-0.5,0.1-1.6-0.1-2c-1-1.8,2.7,0.4-1.5,0.4
			c-0.4-0.9-0.7-1.7-1.1-2.6c-2,2.4-4.1,4.7-6.1,7.1c-1.3,1.5,0.9,3.6,2.1,2.1c2-2.4,4.1-4.7,6.1-7.1c0.8-1,0.3-2.6-1.1-2.6
			c0,0,0,0,0,0c-0.5,0-1.1,0.3-1.3,0.7c-0.7,1.4-0.1,3.7,0,5.2c0.3,4,0.5,8.1,0.7,12.1c0.5,12.7,0.4,25.5-1.1,38.2
			c-1.5,13.3-4.4,27.6-12.2,38.7c-2,2.9-4.4,5.4-7.1,7.6c-2.7,2.2-5.8,4.1-9.3,4.5c-4.3,0.5-7.5-1.6-10.7-4.1
			c-8.7-6.6-18.4-14.5-20.6-25.8c-2.8-14.5,10.7-21.7,19.2-30.8c7.6-8.2,14.1-17.4,19.3-27.3c-0.9,0-1.7,0-2.6,0
			c2.2,4.1,6.9,5.2,11.1,3.7c5.7-2.1,8.1-8.4,10-13.6C329.4,408.4,326.5,407.6,325.8,409.4z"/>
	</g>
</g>
<g>
	<path class="st1" d="M408.9,786.5c1,8,1.5,16.1,1.5,24.1c-0.1,10.7-1.2,21.5-4.2,31.8l1.8-7.9c-15.5,46.8-45.7,88.2-84.9,116.3
		c-3.4,2.4-6.9,4.9-8.5,8.8c-1.1,2.8-1.1,6-0.9,9c1.2,34.9,2.3,69.8,3.5,104.6c0.7,20.9,3.4,45.5,21,55.8
		c-29.8,17.4-66.8,20.9-99.2,9.5c9.5-53.2,6.3-108.7-9.2-160.3c-1.7-5.6-3.5-11.4-2.7-17.1c1-6.8,5.5-12.4,9.3-18
		c24.4-36,23.6-83.6,21.4-127.5s-3.9-91.2,19-128.2c19-30.7,51.7-48.7,78.4-72.4c49.5-44,78.6-108.1,126.5-154
		c44.1-42.2,91.4-32.9,146.8-34.4c61.8-1.7,123.4-12,182.6-30.5c26.8,65,59.4,127.4,97.4,186.2c16.4,25.4,33.8,50.2,47.6,77.2
		c16.7,32.8,27.9,68.7,47.7,99.6c13.8,21.7,32.4,43.4,30.6,69.3c1-14.5-112-1.4-122.2,1.4c-19.1,5.1-37.6,11.6-53.2,24.2
		c-15.9,12.8-28.6,20.2-49.7,22.2c-16.9,1.6-33.9,0.1-50.9-1c-79.2-4.8-158.5,2.3-237.8,2.1c-41.3-0.1-83.2-2.3-122.1-16.4"/>
	<g>
		<path d="M405.9,786.5c2.3,18.3,2.4,37.2-2.6,55.1c1.9,0.5,3.9,1.1,5.8,1.6c0.6-2.6,1.2-5.3,1.8-7.9c0.8-3.8-4.6-5.3-5.8-1.6
			c-14,41.9-39.7,79.6-74.1,107.4c-7.3,5.9-18.5,11-20.1,21.1c-0.9,5.3-0.1,11,0.1,16.4c0.2,7.2,0.5,14.5,0.7,21.7
			c0.9,26.2,1.3,52.4,2.7,78.6c1,19.3,4.4,41.8,22.2,52.9c0-1.7,0-3.5,0-5.2c-29.4,16.9-64.8,20.2-96.9,9.2c0.7,1.2,1.4,2.5,2.1,3.7
			c6.8-38.8,7.2-78.6,1-117.5c-1.6-9.8-3.6-19.5-6-29.2c-1.1-4.5-2.4-9-3.7-13.5c-1.5-5-3.4-10.2-3.3-15.5
			c0.3-9.1,7.6-16.4,12.1-23.8c4.2-7,7.6-14.6,10.3-22.3c23.7-68.1-8.2-142.8,17.9-210.3c12.9-33.3,41.6-53.9,68.7-75.1
			c13.6-10.6,26.3-21.8,37.9-34.5c11.6-12.7,22.1-26.3,32.2-40.1c21-28.6,40.5-58.6,64.9-84.6c11.9-12.6,24.8-23.9,40.6-31.3
			c14.2-6.7,29.7-9.8,45.3-11.1c15.6-1.3,31.2-0.9,46.8-0.8c18.7,0.1,37.4-0.5,56.1-2c40.3-3.2,80.4-10,119.6-20.3
			c9.9-2.6,19.7-5.5,29.5-8.5c-1.2-0.7-2.5-1.4-3.7-2.1c24.9,60.2,54.6,118.4,89.2,173.6c17.4,27.7,36.6,54.3,52.2,83.2
			c15.1,27.9,25.4,58,39.7,86.2c7.6,15,17.2,28.6,26.3,42.7c8.9,13.9,16.7,29,15.7,46c2,0,4,0,6,0c0.2-7.7-12.3-8.5-17.5-9.1
			c-13.5-1.3-27.3-0.6-40.8,0.2c-14.7,0.9-29.3,2.2-43.9,3.9c-9,1-18.2,1.9-27,4.3c-12.1,3.4-24.1,7.4-35.2,13.4
			c-10.5,5.6-19.1,13.8-29.1,20.1c-22.9,14.6-49.6,13.2-75.6,11.5c-59.4-3.8-118.8-1.5-178.2,0.3c-32.4,1-64.8,1.9-97.2,0.7
			c-31.8-1.2-63.5-5.1-93.6-15.8c-3.6-1.3-5.2,4.5-1.6,5.8c51.8,18.6,108.3,17.3,162.6,16.1c58.1-1.2,116.2-4.6,174.4-2.8
			c27.5,0.9,56.2,5.8,83.6,0.8c10.2-1.9,19.9-5.8,28.7-11.4c10-6.4,18.6-14.5,29.1-20.1c25.7-13.7,53.1-16.7,81.5-19.2
			c16.2-1.4,32.5-2.6,48.8-2.4c6.1,0.1,12.4,0.2,18.5,1.3c1.7,0.3,3.6,0.7,5.2,1.4c0.6,0.3,1.1,0.6,1.3,0.8c0.3,0.3,0.1-0.1,0.1,0.1
			c-0.1,3.9,5.8,3.8,6,0c1.6-29.2-19.7-51.9-33.8-75.4c-16.5-27.3-26.9-57.6-40.5-86.3c-14.1-29.5-32.7-56.3-50.4-83.7
			c-18-27.8-34.9-56.4-50.5-85.7c-17.7-33.2-33.7-67.3-48.1-102.1c-0.6-1.5-2-2.6-3.7-2.1c-40,12.5-81.1,21.3-122.7,26.2
			c-20.4,2.4-40.9,3.9-61.5,4.3c-16.3,0.4-32.7-0.2-49,0.1c-31.2,0.6-61.5,6.3-86.7,25.8c-27.5,21.2-48.1,51.5-68.1,79.5
			c-20.7,29-41.3,58.6-67.9,82.6c-25.1,22.6-55.6,39.8-75.7,67.6c-44,60.8-14.9,140.9-25.5,209.4c-2.7,17.4-7.9,34.4-17.2,49.4
			c-4.4,7.1-10.4,13.6-11.8,22.1c-1.4,8.8,2.4,17.6,4.7,25.9c10.9,39.3,14.6,80.4,11.1,121c-0.9,10.3-2.2,20.5-4,30.6
			c-0.3,1.7,0.4,3.1,2.1,3.7c33.5,11.6,70.8,7.8,101.5-9.8c2-1.1,1.9-4,0-5.2c-16.2-10-18.5-31.8-19.3-49.1
			c-1.2-25-1.7-50.1-2.6-75.2c-0.4-12.3-1.9-25.1-1.2-37.4c0.4-6.8,5.6-9.7,10.5-13.3c4-3,7.9-6.1,11.7-9.3
			c15.5-13.1,29.3-28.4,40.9-45c13.3-19,23.7-40,31.1-62c-1.9-0.5-3.9-1.1-5.8-1.6c-0.6,2.6-1.2,5.3-1.8,7.9
			c-0.8,3.8,4.7,5.3,5.8,1.6c5.2-18.4,5.2-37.9,2.9-56.7C411.4,782.8,405.4,782.7,405.9,786.5L405.9,786.5z"/>
	</g>
</g>
<path class="st7" d="M1211.3,559.1l-11.4-53l-26.5-100.7l-38.9-76l-37.1-45l-43.1-43.8l-35-26.3l-22.3-13.9l-39.3-17l-43.2-11.7
	l-39.7-3.8h-45.5h-55.2h-53.5H618L444,167v190.8h60.1v561.7L504,919l2,248h-63v190h311v-190h-64v-109l73,6l75,2l68-5l52-9l49-17
	l39-21l22-10l26-16l11-11l24.9-35l17.4-28.9l17.5-34.6l10.5-26.1l10.6-37.1l24.7-98.9l4.4-48.6v-51.6L1211.3,559.1z M1035.3,784.9
	L1014,844l-30,21l-37,17l-32,5l-42,9l-44,8l-74-3l-54-1l-0.4-480.7h192.5l31.8,8.8l36.2,19.4l22.1,23l33.6,33.6l15.9,42.4l5.3,68.9
	l5.3,49.5l0.6,59.7L1035.3,784.9z"/>
<g>
	<g>
		<path class="st1" d="M1040.4,806.9c17.3,15.1,34.6,30.2,51.9,45.3c3.5,3,7,6.1,11.1,8.1c42.5,20.8,41.9,62.1,53.9,103.4
			c6.2,21.3,16.7,41.4,30.6,58.6c23.8-18.1,50.5-32.5,78.7-42.6c-2.6-18.8-26.3-24.4-41.8-35.3c-15.3-10.7-23.8-29-27.2-47.3
			c-3.4-18.3-2.5-37.1-2.6-55.8c0-4.6-0.1-9.5-2.1-13.6c-1.7-3.6-4.6-6.4-7.5-9c-11.4-10.4-24-19.5-37.3-27.3"/>
		<g>
			<path d="M1038.3,809c16.6,14.4,33.1,28.9,49.7,43.3c3.3,2.9,6.6,5.9,10.3,8.4c3.7,2.5,7.9,4.2,11.7,6.7
				c6.8,4.3,12.9,9.9,17.7,16.4c18.2,24.5,19.1,57.5,28.2,85.7c6.5,20.1,16.7,38.6,29.9,55.1c0.7,0.9,2.7,1.2,3.6,0.5
				c23.7-17.9,50-32.2,78-42.3c1.7-0.6,2.4-2,2.1-3.7c-2-12-11.8-19.4-21.8-25c-13-7.3-26-13.1-34.7-25.9
				c-9.8-14.4-13.5-31.9-14.5-49.1c-0.6-9.6-0.5-19.3-0.4-29c0-8.3,1.1-17.9-3.3-25.3c-4.6-7.7-13.2-13.6-20.2-19
				c-7.9-6.2-16.3-11.8-25-16.9c-3.3-2-6.4,3.2-3,5.2c7.4,4.3,14.6,9.1,21.5,14.2c6.8,5.1,14.6,10.7,20,17.4c6,7.5,4,19.3,4,28.3
				c-0.1,9.3-0.1,18.7,0.6,28c1.2,15.5,4.5,31,12.3,44.6c7,12.2,17.1,20.5,29.3,27.1c11.6,6.2,27,12.4,29.4,27
				c0.7-1.2,1.4-2.5,2.1-3.7c-28.5,10.2-55.3,24.6-79.4,42.9c1.2,0.2,2.4,0.3,3.6,0.5c-12.3-15.4-21.9-32.9-28.1-51.6
				c-5-15.3-7.8-31.1-11.7-46.7c-3.4-13.6-7.9-27.4-15.9-39.1c-4-5.9-8.8-11.1-14.4-15.6c-6.8-5.4-14.9-8.5-21.6-13.8
				c-19.2-15.3-37.3-32.5-55.8-48.7C1039.7,802.3,1035.4,806.5,1038.3,809L1038.3,809z"/>
		</g>
	</g>
	<g>
		<path class="st2" d="M1226.6,945.6c-8.9,8.5-18.8,16.1-28.8,22.8c-9.9,6.6-20.9,12.6-32.5,17.1c5.9,13.2,13.5,25.6,22.6,36.8
			c23.8-18.1,50.5-32.5,78.7-42.6C1264.2,961.7,1242.1,955.8,1226.6,945.6z"/>
		<g>
			<path d="M1224.5,943.5c-17.4,16.4-37.7,30.3-60,39.1c-1.9,0.8-2.7,2.5-1.8,4.4c6.1,13.4,13.9,25.9,23.1,37.4
				c0.7,0.9,2.7,1.2,3.6,0.5c23.7-17.9,50-32.2,78-42.3c1.6-0.6,2.4-2,2.1-3.7c-3.3-20-26.6-26.4-41.4-35.9c-3.3-2.1-6.3,3.1-3,5.2
				c13.3,8.5,35.7,14.4,38.7,32.4c0.7-1.2,1.4-2.5,2.1-3.7c-28.5,10.2-55.3,24.6-79.4,42.9c1.2,0.2,2.4,0.3,3.6,0.5
				c-8.9-11.1-16.3-23.3-22.2-36.2c-0.6,1.5-1.2,2.9-1.8,4.4c23.3-9.2,44.5-23.5,62.6-40.7C1231.6,945.1,1227.3,940.9,1224.5,943.5z
				"/>
		</g>
	</g>
</g>
<g>
	<g>
		<path class="st3" d="M1047.1,908.2c26.8-2,51.5-17.2,65.1-40.4c1-1.7-1.6-3.2-2.6-1.5c-13.1,22.3-36.7,37-62.5,38.9
			C1045.2,905.4,1045.2,908.4,1047.1,908.2L1047.1,908.2z"/>
	</g>
</g>
<g>
	<g>
		<path class="st1" d="M746.2,652.6c4.2,55,16.5,109.9,41.5,159.1c25,49.2,63.3,92.4,112,118.4c21.8,11.7,45.5,19.8,66.6,32.7
			c52.5,32.3,84.3,95.4,79.1,156.8c36.1-0.6,72-10,103.8-27c-7.3-28.8-22.3-55.6-43.1-76.9c-15.8-16.3-35-29.5-48.1-48
			c-8.8-12.3-45.4-185.6-43.4-158.3"/>
		<g>
			<path d="M743.2,652.6c6.2,80.2,29.9,161,83.7,222.6c25.3,29,55.9,51,90.8,67c18.6,8.5,37.7,16.4,54.5,28.1
				c14.6,10.2,27.5,23,37.9,37.4c23.4,32.2,35.4,72.2,32.2,112c-0.1,1.6,1.5,3,3,3c36.8-0.8,72.8-10.2,105.3-27.4
				c1.2-0.6,1.7-2.1,1.4-3.4c-5-19.2-13.1-37.5-24.2-53.9c-11.2-16.7-25.4-30.1-40.3-43.5c-7.6-6.8-15.1-13.7-21.8-21.5
				c-2.5-2.9-5.4-6.4-6.7-9.6c-2.5-6-4.2-12.5-5.9-18.7c-11.3-40.4-20-81.5-30.5-122.2c-1.3-5.2-2.2-11.7-4.9-16.5
				c-1.1-2-3.3-3.5-5.4-1.6c-1.3,1.3-1.1,3.4-1,5c0.3,3.8,6.3,3.9,6,0c0-0.5,0.1-1.5-0.1-2c-0.4-0.8,0.6,0.5,0,0.2
				c0.7,0.4-5.7,1.6-5,0.8c-0.2,0.2,0.2,0.2,0.3,0.8c0.2,0.8,0.5,1.6,0.8,2.3c1.8,5.8,3.3,11.8,4.7,17.7
				c4.9,19.3,9.4,38.7,14.1,58.1c4.8,19.7,9.5,39.5,15,59c1.7,6.1,3.4,12.2,5.6,18.1c3.8,9.7,12.3,17.5,19.6,24.6
				c15.7,15.1,32.7,28.3,45.7,46c12.9,17.6,22.3,37.4,27.8,58.6c0.5-1.1,0.9-2.3,1.4-3.4c-31.5,16.7-66.6,25.8-102.3,26.6
				c1,1,2,2,3,3c2.8-34.5-5.7-69.4-22.9-99.4c-18.1-31.5-45-55-77.5-70.8c-18.6-9-37.9-16.5-55.7-27.1
				c-16.4-9.7-31.5-21.5-45.2-34.7c-27.5-26.6-49-59-64.5-93.9c-19.7-44.5-29.6-92.8-33.3-141.2
				C748.9,648.8,742.9,648.8,743.2,652.6L743.2,652.6z"/>
		</g>
	</g>
	<g>
		<path class="st2" d="M1123,1035.2c-19.6,17.2-41.4,32.7-65.2,43.4c-3.8,1.7-7.7,3.3-11.7,4.7c1.6,12.7,1.9,25.5,0.4,38.3
			c36.1,0.3,72.2-8.1,104.4-24.4C1145.9,1074.9,1136.3,1053.7,1123,1035.2z"/>
		<g>
			<path d="M1120.8,1033c-22.4,19.5-47.4,37.1-75.5,47.3c-1.1,0.4-2.4,1.5-2.2,2.9c1.6,12.7,1.8,25.5,0.4,38.3c-0.2,1.6,1.5,3,3,3
				c36.8,0.1,73-8.4,105.9-24.8c1.2-0.6,1.7-2.2,1.4-3.4c-5.3-22.6-14.9-43.8-28.3-62.7c-2.2-3.1-7.4-0.1-5.2,3
				c13.2,18.5,22.6,39.1,27.7,61.2c0.5-1.1,0.9-2.3,1.4-3.4c-32,15.9-67.2,24.1-102.9,23.9c1,1,2,2,3,3c1.3-12.8,1.1-25.5-0.4-38.3
				c-0.7,1-1.5,1.9-2.2,2.9c29.1-10.5,55-28.6,78.2-48.8C1128,1034.7,1123.7,1030.5,1120.8,1033z"/>
		</g>
	</g>
</g>
<g>
	<g>
		<path class="st10" d="M1170,420.6c-7.7-37.8-45.4-60.8-80.6-76.6c-38.4-17.2-78.9-31.6-121-33.5c-37.7-1.8-75.1,6.4-112,14.6
			c-32.3,7.2-64.6,14.3-96.9,21.5c17.4,6.1,35.7,9.7,54.1,10.6c-25.7,3.6-51.9,4.6-77.8,2.8c12,7,24.1,14.1,36.1,21.1
			c-18.3,8-39,10.5-58.7,7.1l3.8,0c27.8,58.2,16.9,126.8,27.5,190.4c6.9,41,23.1,80.5,47.1,114.5c32.4,46,78.3,81.4,128.3,107.4
			c50,25.9,104.1,42.9,158.6,57c-2.2-13.6-3.4-27.4-3.6-41.2c23,17.3,46.7,33.7,71.1,49.1c-7.5-17.2-12.5-35.4-14.8-54
			c18.9,15.8,36.2,33.6,51.5,53.1c-5.5-14.8-10.9-29.7-16.4-44.5c9.4,4.3,17.8,10.7,24.5,18.6c0.5-21.5,0.9-43,1.4-64.5
			c7.1,9.1,12.3,19.6,15.3,30.8c2.5-23.6,5-47.1,7.5-70.7L1170,420.6z"/>
		<g>
			<path d="M1172.9,419.8c-10.9-51.1-69.7-74.8-113.1-91.4c-29-11.1-59.3-19.3-90.4-20.9c-33.2-1.7-66.2,4.3-98.4,11.3
				c-37.4,8.1-74.8,16.5-112.1,24.8c-3.1,0.7-2.6,4.9,0,5.8c17.7,6.2,36.1,9.7,54.9,10.7c-0.3-2-0.5-3.9-0.8-5.9
				c-25.5,3.5-51.3,4.4-77,2.7c-3-0.2-4,4.1-1.5,5.6c12,7,24.1,14.1,36.1,21.1c0-1.7,0-3.5,0-5.2c-17.8,7.6-37.4,10-56.4,6.8
				c-0.3,2-0.5,3.9-0.8,5.9c1.3,0,2.5,0,3.8,0c-0.9-0.5-1.7-1-2.6-1.5c18.7,39.8,19.6,84.6,21.6,127.7c1,21.3,2.3,42.7,6,63.7
				c3.6,20.8,9.6,41.1,17.8,60.5c32.7,77.6,98.9,133.2,173.6,168.9c46.1,22,95,37.1,144.4,49.9c2.4,0.6,4-1.5,3.7-3.7
				c-2.1-13.4-3.2-26.9-3.5-40.4c-1.5,0.9-3,1.7-4.5,2.6c23,17.3,46.7,33.7,71.1,49.1c2.8,1.8,5.2-1.6,4.1-4.1
				c-7.2-16.7-12.1-34.4-14.4-52.5c-1.7,0.7-3.4,1.4-5.1,2.1c18.9,15.9,36.2,33.6,51.5,53.1c1.8,2.3,6-0.2,5-2.9
				c-5.5-14.8-10.9-29.7-16.4-44.5c-1.5,1.1-2.9,2.3-4.4,3.4c9.2,4.3,17.2,10.4,23.9,18.1c1.8,2,5.1,0.3,5.1-2.1
				c0.5-21.5,0.9-43,1.4-64.5c-1.9,0.5-3.7,1-5.6,1.5c6.9,9,11.9,19.1,15,30.1c1,3.5,5.6,2.4,5.9-0.8c1.7-16.4,3.5-32.7,5.2-49.1
				c0.8-7.4,2.8-15.7,2.1-23.1c-0.5-4.8-1.4-9.6-2.1-14.3c-3.3-23.4-6.7-46.7-10-70.1c-4.6-32.2-9.2-64.5-13.8-96.7
				c-4.2-29.1-8.3-58.3-12.5-87.4c-1.4-9.8-2.8-19.6-4.2-29.5c-0.7-4.6-0.8-9.7-2-14.2C1173,420.3,1173,420,1172.9,419.8
				c-0.5-3.8-6.3-2.2-5.8,1.6c5.7,39.8,11.4,79.7,17.1,119.5c8.2,57.3,16.4,114.7,24.6,172c1,6.7,2.3,13.4,2.9,20.2
				c0.5,5.5-0.9,11.2-1.5,16.7c-1.9,18.3-3.9,36.7-5.8,55c2-0.3,3.9-0.5,5.9-0.8c-3.1-11.4-8.4-22.1-15.6-31.5
				c-1.7-2.3-5.5-1.7-5.6,1.5c-0.5,21.5-0.9,43-1.4,64.5c1.7-0.7,3.4-1.4,5.1-2.1c-7-8.1-15.4-14.5-25.1-19c-2.1-1-5.4,0.7-4.4,3.4
				c5.5,14.8,10.9,29.7,16.4,44.5c1.7-1,3.3-1.9,5-2.9c-15.3-19.4-32.5-37.2-51.5-53.1c-1.7-1.4-5.5-0.7-5.1,2.1
				c2.5,19.2,7.6,37.7,15.2,55.5c1.4-1.4,2.7-2.7,4.1-4.1c-24.3-15.4-48-31.7-71.1-49.1c-1.9-1.4-4.6,0.5-4.5,2.6
				c0.3,14.1,1.6,28.1,3.7,42c1.2-1.2,2.5-2.5,3.7-3.7c-84-21.8-169-51-235.6-108.8c-30.8-26.8-56.4-59.1-73.9-96.1
				c-9.2-19.6-16.1-40.4-20.5-61.6c-4.3-20.9-5.9-42.3-7-63.6c-2.4-46.6-2.5-94.7-22.7-137.8c-0.4-0.9-1.6-1.5-2.6-1.5
				c-1.3,0-2.5,0-3.8,0c-3.3,0-4.2,5.3-0.8,5.9c20.8,3.4,41.6,0.9,61-7.4c2.1-0.9,1.8-4.1,0-5.2c-12-7-24.1-14.1-36.1-21.1
				c-0.5,1.9-1,3.7-1.5,5.6c26.3,1.7,52.5,0.6,78.6-2.9c3.5-0.5,2.4-5.7-0.8-5.9c-18.2-0.9-36.1-4.5-53.3-10.4c0,1.9,0,3.9,0,5.8
				c32-7.1,63.9-14.2,95.9-21.3c31.8-7,63.9-14.2,96.6-14.9c30.7-0.6,60.8,5.5,89.7,15.3c25.8,8.7,51.8,19.3,75.1,33.4
				c22.6,13.6,43.6,32.5,49.4,59.4C1168,425.2,1173.7,423.6,1172.9,419.8z"/>
		</g>
	</g>
	<g>
		<g>
			<path class="st1" d="M998.3,575.1c-6.7,19.3,2.4,40.6,15.2,56.5s29.2,28.6,41,45.3c12.6,17.8,19.1,39.2,28.8,58.7
				c9.7,19.6,24.1,38.7,45,45.1c11,3.4,22.8,2.8,34.2,1.1c11.1-1.7,22.6-4.9,30.6-12.9c13.1-13.1,12.4-34,12.9-52.4
				c0.7-26.2,5.7-52.3,14.6-77c6.2-17.1,14.2-33.5,18.5-51.2c6.4-26.4,4-54.1,1.6-81.2c-0.6-6.3-1.2-12.7-3.4-18.6
				c-2.8-7.2-7.9-13.2-12.9-19.1c-13.4-15.6-27.4-31.8-46.3-40c-11-4.8-23-6.5-34.7-9.2c-18.7-4.4-37.4-11.4-56.5-9.4
				c-19.3,2.1-36.5,13.2-51.6,25.3L998.3,575.1z"/>
			<g>
				<path d="M995.4,574.3c-13.3,40.9,28.1,69.8,50.8,96.7c25.5,30.4,29,75,60.4,101c15.3,12.7,33.7,15.7,53.1,13.2
					c17.6-2.3,35.4-8.2,43.3-25.6c7.6-16.8,5.2-36.5,6.6-54.4c1.7-22.8,6.7-45.3,14.5-66.7c7.6-20.7,17.2-40.5,20.4-62.5
					c3.2-22.3,1.4-44.8-0.6-67.1c-0.9-9.7-1.8-19.3-6.9-27.9c-4.8-8.2-11.7-15.4-18-22.5c-12.4-14.1-26.3-27.2-44.3-33.7
					c-10.2-3.7-20.9-5.3-31.4-7.8c-10.9-2.6-21.6-6-32.7-7.9c-20.4-3.6-39.2-0.1-57,10.4c-4.1,2.4-8.1,5.1-11.9,7.9
					c-2.9,2.1-7.8,4.6-9.4,7.9c-0.4,0.8-0.5,2-0.8,2.9c-1.7,6.4-3.4,12.8-5.1,19.2c-10.1,38.1-20.2,76.2-30.3,114.3
					C995.9,572.5,995.6,573.4,995.4,574.3c-1,3.7,4.8,5.3,5.8,1.6c8.4-31.7,16.8-63.4,25.2-95.1c2.4-8.9,4.7-17.9,7.1-26.8
					c1.4-5.1,2.4-10.6,4.1-15.6c1-2.8,3-3,5.7-5c7.8-5.8,16.2-11.1,25.2-14.9c20.2-8.3,40.1-4.5,60.5,0.9
					c19.2,5.1,40.4,6.9,57.5,17.7c15.7,9.9,28.4,25,40,39.3c6.8,8.5,9.9,17.2,11,27.9c1,10.7,2,21.3,2.5,32
					c1,21.5-0.4,42.7-7.2,63.2c-6.6,19.8-15.7,38.5-21.2,58.7c-5.3,19.7-8.1,40-8.6,60.4c-0.4,16.5,0.4,37-13.1,49.1
					c-6.9,6.2-16.2,8.9-25.1,10.6c-10.5,1.9-21.7,2.8-32.1,0.4c-38.2-8.8-49.5-53.5-64.3-84c-8.5-17.6-20.5-31.5-34.1-45.3
					c-13.4-13.5-27.3-27.6-32.9-46.4c-2.7-9-3-18.2-0.1-27.2C1002.4,572.2,996.6,570.7,995.4,574.3z"/>
			</g>
		</g>
		<g>
			<path class="st11" d="M1185.7,513.3c-0.3-0.1-0.4,0.6-0.1,0.7c0.4,0.1,0.7-0.2,1-0.4c1.7-1.7,3.2-3.6,3.9-5.8
				c0.7-2.3,0.3-5-1.4-6.6c-0.7-0.7-1.6-1.2-2.5-1.6c-3.3-1.6-7.6-2.9-10.2-0.3l0.9-0.1c-1.4,2.6-1.5,6-0.1,8.6s4.1,4.6,7.1,4.9"/>
			<g>
				<path d="M1184.9,510.4c-0.1,0-0.2,0.1-0.3,0.1c-0.9,0.3-1.9,1.1-2.1,2.1c-0.7,4.8,4,5.3,6.8,2.5c2.8-2.9,4.9-6.7,4.3-10.9
					c-1.1-8-13.4-12.3-19.4-7.1c-1.8,1.6-0.5,5.5,2.1,5.1c0.3,0,0.6-0.1,0.9-0.1c-0.9-1.5-1.7-3-2.6-4.5c-3.6,7.5,0.3,16.5,8.8,18
					c3.8,0.7,5.4-5.1,1.6-5.8c-4.4-0.8-7.3-4.8-5.2-9.2c0.8-1.8-0.1-4.8-2.6-4.5c-0.3,0-0.6,0.1-0.9,0.1c0.7,1.7,1.4,3.4,2.1,5.1
					c2-1.7,7.5,0.5,8.7,2.4c1.8,2.8-1.1,6.5-3.3,8.1c0.7-0.3,1.4-0.6,2.1-0.9c-0.2,0-0.3,0-0.5,0.1c0.7,0.3,1.4,0.6,2.1,0.9
					c-0.1-0.1-0.1-0.2-0.2-0.3c0.3,1,0.5,1.9,0.8,2.9c0-0.1,0-0.2,0-0.3c-0.7,0.7-1.4,1.4-2.1,2.1c0.1,0,0.2-0.1,0.3-0.1
					C1190.1,515,1188.5,509.2,1184.9,510.4L1184.9,510.4z"/>
			</g>
		</g>
		<g>
			<path class="st11" d="M1189.9,529.9c4.5,0,8.7,3.1,10.6,7.2c1.9,4.1,1.7,9,0,13.1c-1.7,4.2-4.7,7.7-8.2,10.6
				c-0.3,0.3-1.1-0.2-0.6-0.2l-1-0.2c0.1,0.3,0.1,0.5,0.2,0.8c-4.3-3.3-8-7.7-9.3-13c-1.7-6.8,1-14.6,6.6-18.8"/>
			<g>
				<path d="M1189.9,532.9c6.7,0.5,9.8,7.3,8.6,13.3c-0.5,2.3-1.5,4.5-2.8,6.5c-0.8,1.2-1.8,2.4-2.8,3.5c-1.6,1.7-2,0.9,0.1,2
					c0.2,1.6,0.4,3.1,0.6,4.7c0,0,0.1-0.1,0.1-0.1c1.4-1.6,1-4.5-1.3-5c-0.3-0.1-0.6-0.1-1-0.2c-2.2-0.5-4.3,1.4-3.7,3.7
					c0.1,0.3,0.1,0.5,0.2,0.8c1.7-1,3.3-1.9,5-2.9c-9-7.2-12.8-19.2-2.7-27.5c3-2.5-1.3-6.7-4.2-4.2c-12.5,10.2-8.7,26.9,2.7,36
					c2.2,1.8,5.8,0.2,5-2.9c-0.1-0.3-0.1-0.5-0.2-0.8c-1.2,1.2-2.5,2.5-3.7,3.7c0.3,0.1,0.6,0.1,1,0.2c-0.4-1.7-0.9-3.3-1.3-5
					c0,0-0.1,0.1-0.1,0.1c-1.2,1.4-1.2,3.8,0.6,4.7c3.6,1.9,6.6-2.1,8.7-4.6c3.1-3.7,5.4-8.1,6-13c1.1-9.5-5-18.1-14.7-18.8
					C1186.1,526.7,1186.1,532.7,1189.9,532.9L1189.9,532.9z"/>
			</g>
		</g>
		<g>
			<path class="st11" d="M1176.5,634c6.6,3.2,15,2.5,20.9-1.8c4.8-3.5,7.9-8.8,10.4-14.2c3.2-6.7,5.7-14.3,4-21.5
				c-1.8-7.3-8.1-13.2-15.4-14.5l-1.4,0.6c-8.5,4.7-15.2,12.5-18.5,21.6c-3.3,9.1-3.2,19.4,0.4,28.4c0.2-0.5,0.4-0.9,0.6-1.4"/>
			<g>
				<path d="M1175,636.6c13.5,5.9,26.3-0.4,33.3-12.7c6.6-11.8,11.4-27.6,0.6-38.5c-3.3-3.3-9.5-7.5-14.3-5.8
					c-5.5,1.9-10.8,7.4-14.3,11.9c-9.3,12-11.4,27.9-6.3,42c0.8,2.1,4.4,3.3,5.5,0.7c0.2-0.5,0.4-0.9,0.6-1.4c1.5-3.5-3.7-6.6-5.2-3
					c-0.2,0.5-0.4,0.9-0.6,1.4c1.8,0.2,3.7,0.5,5.5,0.7c-3.9-10.7-3.5-22.4,2.2-32.4c2.7-4.6,6.3-8.7,10.6-11.9
					c1.3-0.9,3-2.5,4.6-2.8c-0.2,0,0.1,0.1,1.1,0.7c1.2,0.7,2.5,1.1,3.7,1.8c10.9,7.3,7.5,20.6,2.6,30.5
					c-5.1,10.3-14.5,18.7-26.6,13.5C1174.5,629.9,1171.5,635,1175,636.6L1175,636.6z"/>
			</g>
		</g>
		<g>
			<path class="st11" d="M1233,458.4c15.3-0.4,30.4-3.7,45.1-7.8c15.8-4.5,31.6-10.1,45-19.7c6.6-4.7,12.5-10.3,18.3-16.1
				c12.8-12.8,25.2-27.4,28.2-45.2c0.6-3.7,1.3-8.2,4.8-9.7c1.8-0.7,3.8-0.4,5.6,0.2c4.8,1.9,8.1,6.2,10.6,10.6
				c8.6,15.1,10.3,33.6,7,50.6c-3.3,17.1-11.4,32.9-21.4,47.2c-28.9,41.4-74.6,70.8-124.3,79.7L1233,458.4z"/>
			<g>
				<path d="M1233,461.4c16.5-0.6,32.7-4.1,48.5-8.7c14.3-4.2,28.5-9.4,41-17.7c12.1-8.1,23-19,32.3-30.2
					c9.1-10.9,15.2-22.4,18.1-36.3c0.3-1.2,0.4-2.9,1.1-3.9c1.6-2.2,4.3-2,6.5-0.8c3.6,2,6,5.7,7.9,9.3c3.7,6.8,6,14.3,7.1,21.9
					c2.2,15.8-1,31.9-7.3,46.5c-11.2,25.9-30.7,48.6-52.8,65.9c-24.6,19.3-53.7,32.5-84.4,38.1c1.2,0.7,2.5,1.4,3.7,2.1
					c-5.5-26.2-11-52.4-16.5-78.6c-0.8-3.8-1.6-7.6-2.4-11.4c-0.8-3.8-6.6-2.2-5.8,1.6c5.5,26.2,11,52.4,16.5,78.6
					c0.8,3.8,1.6,7.6,2.4,11.4c0.4,1.7,2.2,2.4,3.7,2.1c57.2-10.6,111.5-48,137.8-100.5c7-14.1,11.7-29.4,11.7-45.3
					c0-14.3-3.5-30.7-12.9-41.9c-3.6-4.2-9.8-8.7-15.7-6.5c-5.9,2.2-6.2,9-7.4,14.2c-3.5,16-14.6,28.9-25.8,40.3
					c-13.8,13.9-28.6,24.4-47.1,31.1c-19.3,6.9-39.8,12.1-60.3,12.8C1229.2,455.5,1229.1,461.5,1233,461.4z"/>
			</g>
		</g>
		<g>
			<path class="st6" d="M1104.8,608.9c-10,5.2-18.5,13.5-23.8,23.4c10,5,16.4,15,24.8,22.4c4.4,3.8,9.3,7,14.7,9.3l0.2,8.6
				c-0.4-0.4-0.6,0.8,0,0.8s0.8-0.7,0.9-1.2c1.8-9,3.6-18.3,1.9-27.3c-1.3-6.7-4.5-13-7.6-19.1c-5.5-10.7-11.1-21.5-16.6-32.2"/>
			<g>
				<path d="M1103.3,606.3c-10.5,5.6-19.1,14.1-24.9,24.5c-0.8,1.4-0.4,3.3,1.1,4.1c7.6,4,12.9,10.5,18.7,16.6
					c6.1,6.3,12.8,11.5,20.8,15.1c-0.5-0.9-1-1.7-1.5-2.6c0.1,2.9,0.1,5.7,0.2,8.6c1-1,2-2,3-3c-0.1,0-0.2,0-0.3,0
					c-1.8,0.2-2.8,1.2-3,3c-0.1,1.1,0.3,2.1,1.1,2.8c1,0.8,2.5,1.3,3.6,0.5c2.4-1.6,2.5-3.9,3-6.6c0.7-3.9,1.4-7.8,1.8-11.7
					c0.6-7.5-0.3-14.7-3-21.7c-6-15.1-14.7-29.4-22.1-43.8c-1.8-3.4-7-0.4-5.2,3c6.3,12.3,12.9,24.4,19,36.8
					c3.2,6.4,5.5,13,5.6,20.2c0,3.4-0.3,6.8-0.8,10.2c-0.3,1.8-0.6,3.6-1,5.5c-0.2,1-1.7,4-0.2,3c1.2,0.2,2.4,0.3,3.6,0.5
					c0.2,0.5,0.4,0.9,0.6,1.4c-1,1-2,2-3,3c0.1,0,0.2,0,0.3,0c1.6-0.2,3-1.3,3-3c-0.1-2.9-0.1-5.7-0.2-8.6c0-1-0.5-2.2-1.5-2.6
					c-8.6-3.9-15.3-9.6-21.7-16.4c-5.4-5.8-10.8-11.5-17.8-15.3c0.4,1.4,0.7,2.7,1.1,4.1c5.4-9.6,13.1-17.1,22.8-22.3
					C1109.8,609.7,1106.7,604.5,1103.3,606.3L1103.3,606.3z"/>
			</g>
		</g>
		<g>
			<g>
				<path d="M1097.9,757.6c2.8-3.9-1.9-7.5,0.2-11.6c3.4-6.3,12.3-3.8,17.5-2.1c12.4,3.9,23.9,9.9,35.8,15c10.2,4.4,19.2,3.9,29.5,0
					c10.1-3.8,19.1-9.4,27.2-16.5c2.9-2.5-1.3-6.8-4.2-4.2c-9.1,7.9-20,14.3-31.7,17.3c-13.2,3.4-25.6-5.6-37.2-10.5
					c-9.5-4.1-22-10.7-32.6-8.5c-3.8,0.8-7.3,3.2-9.3,6.6c-1,1.7-1.6,3.6-1.6,5.6c0,1,1.7,5.5,1.4,5.9
					C1090.4,757.7,1095.6,760.7,1097.9,757.6L1097.9,757.6z"/>
			</g>
		</g>
		<g>
			<path class="st12" d="M1095.3,756.1c1.4-0.9,0.3-3-0.4-4.5c-2.2-4.6,1.7-10.3,6.5-11.9c4.9-1.6,10.2-0.3,15,1.3
				c10.9,3.5,21.4,8.3,31.7,13.1c5.2,2.4,10.6,5,16.3,5.2c4,0.2,7.9-0.8,11.7-2c11-3.6,21.2-9.4,29.8-17.1l-0.4,3
				c-1.4,10.1-4.4,19.5-11.5,26.6c-8,8-19.5,11.2-30.6,12.9c-11.4,1.8-23.2,2.3-34.2-1.1c-12.4-3.8-22.6-12.1-30.8-22.3
				L1095.3,756.1z"/>
			<g>
				<path d="M1097.9,757.6c2.8-3.9-1.9-7.5,0.2-11.6c3.4-6.3,12.3-3.8,17.5-2.1c12.4,3.9,23.9,9.9,35.8,15c10.2,4.4,19.2,3.9,29.5,0
					c10.1-3.8,19.1-9.4,27.2-16.5c-1.7-0.7-3.4-1.4-5.1-2.1c-1.3,10.5-4,21.2-12.1,28.6c-9.2,8.3-22.7,10.7-34.6,11.9
					c-13.3,1.3-26.5-0.2-38-7.3c-8.3-5.2-14.1-12.5-20.8-19.5c-2.7-2.8-6.9,1.5-4.2,4.2c8.2,8.4,15.4,17.2,26.1,22.7
					c12.9,6.6,27.3,7.2,41.5,5.4c12.7-1.7,26.2-4.8,35.5-14.2c8.6-8.5,11.3-20.2,12.8-31.8c0.4-2.8-3.4-3.6-5.1-2.1
					c-9.1,7.9-20,14.3-31.7,17.3c-13.2,3.4-25.6-5.6-37.2-10.5c-9.5-4.1-22-10.7-32.6-8.5c-3.8,0.8-7.3,3.2-9.3,6.6
					c-1,1.7-1.6,3.6-1.6,5.6c0,1,1.7,5.5,1.4,5.9C1090.4,757.7,1095.6,760.7,1097.9,757.6z"/>
			</g>
		</g>
		<g>
			<g>
				<path d="M1131.4,780.5c-1.4-3.4-2.7-6.7-3.8-10.2c-0.6-1.9-1.2-3.7-1.8-5.6c-0.3-1-2.2-5.8-1.1-1.3c0.2,0.7,1.8,2.7,2.2,3.6
					c0.8,1.6,1.4,3.4,2,5.1c1.3,3.7,2.5,7.4,3.5,11.1c1-1.3,1.9-2.5,2.9-3.8c-3-0.3-4.2-7-5-9.1c-1.2-3.4-2.3-6.8-3.4-10.2
					c-1.7,1-3.3,1.9-5,2.9c4,5.2,5.1,13.1,6.8,19.3c1,3.5,5.5,2.4,5.9-0.8c0.5-3.9-0.1-7.7-0.7-11.6c-1.9,0.5-3.9,1.1-5.8,1.6
					c0.9,3.1,1.3,9,4.5,10.7c1.1,0.6,2.8,0.6,3.6-0.5c0.9-1,1.3-2.1,0.9-3.5c-0.6-1.7-2-2.4-3.7-2.1c-0.1,0-0.1,0-0.2,0
					c-3.8,0.6-2.2,6.4,1.6,5.8c0.1,0,0.1,0,0.2,0c-1.2-0.7-2.5-1.4-3.7-2.1c0,0.1,0.1,0.2,0.1,0.3c0.3-1,0.5-1.9,0.8-2.9
					c-0.1,0.1-0.1,0.1-0.2,0.2c1.2-0.2,2.4-0.3,3.6-0.5c-0.2-0.1-1.5-6.4-1.7-7.1c-1.1-3.8-6.4-2.2-5.8,1.6c0.6,3.4,0.9,6.6,0.5,10
					c2-0.3,3.9-0.5,5.9-0.8c-2.1-7.5-3.4-15.7-8.3-22c-1.9-2.4-5.9,0.2-5,2.9c1.8,5.7,3.5,11.6,5.9,17.1c1.7,3.7,4.1,6.2,8.2,6.6
					c2,0.2,3.4-2.1,2.9-3.8c-1.6-5.8-3.4-11.6-5.9-17.1c-1.6-3.5-4.3-7.6-8.5-8c-10.9-1.1,0.2,21.7,1.8,25.6
					C1127,785.6,1132.8,784.1,1131.4,780.5L1131.4,780.5z"/>
			</g>
		</g>
		<g>
			<g>
				<g>
					<path d="M1113,624.1c-3.7,4.8-12.5,15.7-6.4,21.6c6.3,6,13.8-0.7,15.4-7.2c0.7-2.7-2.1-4.5-4.4-3.4c-3.1,1.5-5.9,3.5-8.5,5.9
						c1.6,1.2,3.1,2.4,4.7,3.6c1.5-3.2,3.3-6.3,4.6-9.6c0.8-2.1,1.1-4.6-0.8-6.2c-5.4-4.5-9.4,6.4-10.9,9.8c-1.6,3.5,3.5,6.5,5.2,3
						c1.9-3.9,3.8-7.7,5.6-11.6c-1.8-0.2-3.7-0.5-5.5-0.7c0.7,2.8,1.3,5.6,2,8.4c0.6,2.6,4.2,2.8,5.5,0.7c1.5-2.3,1.8-4.7,1.1-7.4
						c-0.9-3.8-6.7-2.2-5.8,1.6c0.4,1,0.2,1.9-0.5,2.7c1.8,0.2,3.7,0.5,5.5,0.7c-0.7-2.8-1.3-5.6-2-8.4c-0.6-2.4-4.3-3.1-5.5-0.7
						c-1.9,3.9-3.8,7.7-5.6,11.6c1.7,1,3.5,2,5.2,3c0.5-1.1,3.4-7.7,3.6-7.7c-0.7-0.3-1.4-0.6-2.1-0.9c-0.8-0.8,0-0.9-0.8,0.4
						c-0.6,0.9-0.9,1.9-1.4,2.9c-0.8,1.7-1.7,3.4-2.5,5.2c-1.5,3,2.1,6,4.7,3.6c2.2-2,4.6-3.6,7.3-4.9c-1.5-1.1-2.9-2.3-4.4-3.4
						c-0.4,1.7-1.1,4-3,4.7c-2,0.8-2.9-0.5-2.4-2.5c1-3.8,4-7.8,6.4-10.8C1119.6,625.3,1115.3,621,1113,624.1L1113,624.1z"/>
				</g>
			</g>
			<g>
				<g>
					<path d="M1111.9,636.9c-0.2,0.8-0.5,1.4-1.1,1.7c-0.8,0.6-1.3,0.6-2.4,0.5c-1.6-0.2-3,1.5-3,3c0,1.8,1.4,2.8,3,3
						c4.2,0.5,8.3-2.6,9.2-6.6c0.4-1.6-0.5-3.2-2.1-3.7C1114.1,634.4,1112.2,635.3,1111.9,636.9L1111.9,636.9z"/>
				</g>
			</g>
		</g>
		<g>
			<path class="st11" d="M1211.7,452.8c3.3-2.4,7.7-2.5,11.6-1.5c3.9,1.1,7.4,3.3,10.8,5.5c3.6,2.3,7.2,4.6,10.8,7
				c1.5,1,3.1,2,4.3,3.4c1,1.3,1.7,2.8,2.3,4.4c3,7.1,5.9,14.3,8.9,21.4c1.2,3,2.5,6,2.8,9.1c0.4,3.4-0.3,6.7-0.9,10
				c-1.6,8.3-3.2,16.6-4.7,24.9c-0.5,2.7-1.1,5.5-2.3,8c-2.2,4.3-6.3,7.2-10.2,9.9L1211.7,452.8z"/>
			<g>
				<path d="M1213.2,455.4c9.3-5.7,21.2,5.2,28.7,10c2.1,1.3,4.3,2.6,5.7,4.7c1.6,2.6,2.5,5.7,3.7,8.5c2.1,5.1,4.2,10.1,6.3,15.2
					c2,4.8,3.2,9,2.5,14.3c-0.7,5.3-2,10.5-3,15.8c-1,5.2-1.7,10.6-3,15.7c-1.6,6-5.6,9.4-10.5,12.8c1.5,0.6,2.9,1.2,4.4,1.8
					c-9.7-29.8-19.4-59.5-29.2-89.3c-1.4-4.3-2.8-8.6-4.2-12.9c-1.2-3.7-7-2.1-5.8,1.6c9.7,29.8,19.4,59.5,29.2,89.3
					c1.4,4.3,2.8,8.6,4.2,12.9c0.6,1.7,2.7,3,4.4,1.8c4.6-3.2,9.2-6.6,11.7-11.8c2.8-5.9,3.3-13,4.5-19.4c1.3-6.6,3-13.3,3.6-20
					c0.5-6.4-2-11.9-4.4-17.7c-2.6-6.2-5-12.4-7.7-18.6c-2.6-6-7-8.4-12.3-11.9c-9.2-5.9-20.5-14.8-31.6-8
					C1206.9,452.2,1209.9,457.4,1213.2,455.4z"/>
			</g>
		</g>
		<g>
			<path class="st11" d="M1036.1,507.4c-7.3-9.1-9.9-21.4-8.9-33c1-11.6,5.2-22.8,10.2-33.3c6.6-14,14.7-27.3,24.1-39.6
				c2.1-2.7,4.2-5.5,5.4-8.7c1.1-3.2,1.1-7.1-1.1-9.7c-2.3-2.8-6.5-3.6-10.1-2.8s-6.7,2.9-9.7,5c-32.1,22-63.4,46.6-85.3,78.7
				c-4,5.8-7.6,11.9-9.7,18.7c-2.4,8-2.4,16.5-2.4,24.8c0,6.5,0.1,13.2,1.9,19.4c1.4,5.1,4,9.9,6.9,14.4
				c12.2,18.4,32.3,31,53.9,35.1c18.7,3.5,50.3,4,61.3-14.3c6.2-10.2,7-22.7,7-34.6c0-9.4-0.5-19-4.5-27.5
				c-8.1-17.6-28.8-26.1-48.1-27.1"/>
			<g>
				<path d="M1038.7,505.9c-15.9-20.7-6.8-47.3,3.7-68.2c5.4-10.6,11.6-20.8,18.5-30.5c5.1-7.1,14-16.8,7.4-25.8
					c-5.9-8.1-16.7-3.7-23.2,0.7c-9.6,6.5-19,13.3-28.1,20.4c-17.6,13.6-34.3,28.5-48.3,45.7c-7,8.6-14,17.7-18.4,27.8
					c-4.7,10.7-4.7,22.4-4.6,33.9c0.2,12,2.5,22.5,9.1,32.6c5.4,8.1,12.2,15.2,20.1,21c15.1,11.2,33.4,16.6,52,17.5
					c15.3,0.7,34.3-1.1,45.1-13.3c7.4-8.4,9.7-20.2,10.4-31c0.8-12.1,0.8-25.5-3.9-36.9c-8.5-20.2-31-28.9-51.4-30.2
					c-3.9-0.2-3.8,5.8,0,6c16.8,1,35.7,7.6,44.3,23.1c5.3,9.6,5.5,21.2,5.3,32c-0.2,10.1-1.2,20.9-6.6,29.7c-8,13-26.1,15-40,14.8
					c-16.6-0.3-33-4.3-47.1-13.3c-8.2-5.2-15.5-11.9-21.2-19.7c-6.5-9-9.7-18.4-10-29.5c-0.3-10.6-0.7-21.8,3-31.8
					c3.7-9.9,10.5-18.9,17.1-27c12.3-15.4,26.8-29,42.1-41.3c8-6.4,16.2-12.5,24.5-18.4c4.3-3,25.4-19.8,26.1-5.7
					c0.3,5.9-5.7,11.4-8.9,15.8c-3.5,4.8-6.8,9.8-9.9,14.9c-5.7,9.3-10.7,19.1-14.9,29.2c-8,19.4-11.1,42.9,2.5,60.7
					C1035.8,511.9,1041,509,1038.7,505.9L1038.7,505.9z"/>
			</g>
		</g>
		<g>
			<path class="st11" d="M1053.9,463.7c-9.1,3.2-17.6,7.8-25.2,13.7c10.2,4,20.3,7.9,30.5,11.9c1,0.4,2.1,0.8,2.8,1.7
				c1.2,1.5,1,3.6,0.9,5.5c-0.2,10.5,8.4,19.3,9.7,29.7c0.8,6.4-1.2,12.7-3.2,18.8c-1.9,5.9-3.8,11.8-5.8,17.8
				c-0.5,1.5-1,3.1-2.2,4.2c-1.2,1.2-3,1.6-4.6,2c-7.4,1.9-14.4,5-20.9,9c6.6,4.5,13.1,8.9,19.7,13.4c1.2,0.8,2.4,1.6,3.8,1.7
				c1.2,0.1,2.4-0.4,3.6-0.9c10.4-4.3,20.4-9.4,30-15.2c1.3-0.8,2.6-1.6,3.5-2.8c1-1.3,1.4-3,1.7-4.6c2.5-10.8,4.9-21.7,7.4-32.5
				c0.7-3.2,1.5-6.5,1.4-9.7c-0.1-4.2-1.6-8.2-3.2-12.1c-4.4-10.7-9.9-21-15.4-31.2c-0.8-1.5-1.6-3.1-2.8-4.3c-1.7-1.8-4-2.9-6.2-4
				c-8.9-4.3-17.9-8.7-26.8-13c2.8,1,5.6,2,8.4,3.1L1053.9,463.7z"/>
			<g>
				<path d="M1053.1,460.8c-9.3,3.4-18,8-25.9,14c-2.1,1.6-1.8,4.5,0.7,5.5c5.7,2.2,11.3,4.4,17,6.6c2.7,1,5.4,2.1,8.1,3.1
					c3.9,1.5,6.2,1.8,6.9,6.4c0.7,4.5,1.2,8.3,3,12.6c1.9,4.5,4.5,8.8,5.9,13.5c3.4,11.4-3.1,24.2-6.6,34.9
					c-1.1,3.5-1.7,7.2-5.5,8.4c-2.4,0.8-4.9,1.4-7.3,2.2c-5.2,1.9-10.2,4.4-14.9,7.3c-2,1.2-1.9,3.9,0,5.2c4.4,3,8.7,6,13.1,8.9
					c3.3,2.2,7,5.9,11.1,6.5c3.8,0.5,7.7-1.9,11-3.4c4-1.8,7.9-3.7,11.8-5.7c6.7-3.5,16.8-7,19.3-14.9c2.9-9.5,4.5-19.7,6.7-29.4
					c2-8.7,3.6-16.2,0.6-24.9c-3-8.6-7.2-16.8-11.4-24.8c-3.8-7.3-6.7-15.3-14.4-19.3c-9.2-4.9-18.8-9.1-28.2-13.7
					c-0.8,1.8-1.5,3.7-2.3,5.5c2.8,1,5.6,2,8.4,3.1c0.5-1.9,1.1-3.9,1.6-5.8c-2.4-0.7-4.7-1.3-7.1-2c-3.7-1.1-5.3,4.7-1.6,5.8
					c2.4,0.7,4.7,1.3,7.1,2c3.8,1.1,5.2-4.5,1.6-5.8c-2.8-1-5.6-2-8.4-3.1c-3.2-1.2-5.4,4-2.3,5.5c7.7,3.8,15.5,7.5,23.2,11.3
					c3.1,1.5,6.8,2.7,9.2,5.3c2.5,2.7,4.1,7,5.8,10.2c3.7,7,7.4,14.1,10.5,21.4c1.6,3.6,3.2,7.3,3.9,11.2c0.8,4.3-0.2,8.5-1.2,12.7
					c-1.8,8-3.6,16-5.4,23.9c-0.9,4-1.1,9.5-4.3,12.5c-2.6,2.5-7.1,4.2-10.2,5.9c-3.6,1.9-7.2,3.8-10.8,5.5
					c-3.3,1.6-9.6,5.8-13.4,4.5c-3.3-1.1-6.6-4.4-9.4-6.4c-3.8-2.6-7.7-5.2-11.5-7.8c0,1.7,0,3.5,0,5.2c6.3-3.9,13-6.7,20.1-8.7
					c5.3-1.5,7.5-4,9.2-9.2c4.1-12.3,11.3-27,8.1-40.2c-1.4-5.5-4.4-10.5-6.6-15.7c-1.2-2.8-2.2-5.7-2.5-8.8
					c-0.2-2.5,0.3-4.9-0.7-7.3c-2.1-4.8-9.9-6.1-14.2-7.8c-7.2-2.8-14.3-5.6-21.5-8.4c0.2,1.8,0.5,3.7,0.7,5.5
					c7.5-5.7,15.7-10.2,24.5-13.4C1058.3,465.3,1056.7,459.5,1053.1,460.8z"/>
			</g>
		</g>
	</g>
</g>
<g>
	<path class="st2" d="M244.2,1092.8c24,9.6,52.8,6,73.8-9.2c7.2,14.9,14.3,29.8,21.5,44.7c0.5,1.1,1,2.3,0.6,3.4
		c-0.3,0.8-1.1,1.2-1.8,1.7c-20.7,11.9-45.1,15.2-68.9,15.7c-10.4,0.2-21.3-0.1-30.3-5.4c-1.4-0.8-2.7-1.8-3.4-3.2
		c-0.6-1.4-0.5-2.9-0.4-4.4c1.2-14.9,4.5-29.5,9.6-43.5"/>
	<g>
		<path d="M243.8,1094.2c24.8,9.5,53.3,5.9,74.9-9.4c-0.7-0.2-1.4-0.4-2.1-0.5c4,8.3,8,16.7,12,25c1.7,3.6,3.4,7.2,5.2,10.7
			c1,2.1,2,4.2,3,6.3c1.4,2.9,1.8,4.5-1,6.5c-6.1,4.5-14.9,6.9-22.1,8.9c-8,2.2-16.2,3.7-24.5,4.6c-14.7,1.6-32.9,3.8-46.7-2.4
			c-2.6-1.2-5.2-3.4-6-6.3c-0.5-1.9,0.4-5.1,0.6-7.1c0.5-4.2,1.2-8.3,2-12.5c1.7-8.5,4.1-16.9,7-25.1c0.7-1.8-2.2-2.6-2.9-0.8
			c-2.7,7.6-5,15.4-6.6,23.3c-1.5,7.1-3.6,15.7-3,22.9c0.4,5.3,5.6,7.5,10.1,9.2c6.3,2.4,13.1,3,19.8,3c14.8,0.2,29.9-1,44.4-4.2
			c6.9-1.5,13.7-3.6,20.2-6.4c3.8-1.6,13.1-4.1,13.6-9.1c0.3-2.6-2-5.6-3-7.9c-2.1-4.5-4.3-8.9-6.4-13.4
			c-4.3-8.9-8.6-17.9-12.9-26.8c-0.3-0.7-1.4-1-2.1-0.5c-21.1,14.9-48.5,18.4-72.6,9.1C242.8,1090.6,242,1093.5,243.8,1094.2
			L243.8,1094.2z"/>
	</g>
</g>
<g>
	<polygon class="st6" points="-83.1,67.8 -93.7,-11.2 -104.2,-21.7 -183,-32.1 -104.2,-42.7 -93.7,-53.2 -83.1,-132 -72.7,-53.2 
		-62.2,-42.7 16.8,-32.1 -62.2,-21.7 -72.7,-10.4 	"/>
</g>
<g>
	
		<rect x="272.7" y="281.7" transform="matrix(0.9909 -0.1346 0.1346 0.9909 -38.0923 42.3104)" class="st6" width="42.4" height="42.4"/>
	<polygon class="st6" points="307.4,401.9 286.3,325.1 274.4,316.1 194.9,316.4 271.6,295.3 280.6,283.5 280.5,203.9 301.4,280.6 
		313.2,289.6 392.9,289.5 316,310.4 307.2,323 	"/>
	
		<rect x="283.6" y="281.7" transform="matrix(0.9909 -0.1346 0.1346 0.9909 -38.0923 42.3104)" class="st13" width="20.7" height="42.4"/>
	
		<rect x="283.6" y="281.7" transform="matrix(0.1346 0.9909 -0.9909 0.1346 554.5349 -29.0923)" class="st13" width="20.7" height="42.4"/>
</g>
<g>
	<rect x="732.7" y="87.7" transform="matrix(0.94 -0.3411 0.3411 0.94 8.0674 263.724)" class="st6" width="42.4" height="42.4"/>
	<polygon class="st6" points="788,202.9 751.1,132.2 737.7,125.9 660,143 730.5,106.2 736.8,92.7 719.8,15 756.5,85.6 770,91.8 
		847.9,74.8 777.1,111.6 771.1,125.8 	"/>
	<rect x="743.6" y="87.7" transform="matrix(0.94 -0.3411 0.3411 0.94 8.0674 263.724)" class="st13" width="20.7" height="42.4"/>
	
		<rect x="743.6" y="87.7" transform="matrix(0.3411 0.94 -0.94 0.3411 599.1212 -636.9326)" class="st13" width="20.7" height="42.4"/>
</g>
<g>
	
		<rect x="76.7" y="758.7" transform="matrix(0.9065 -0.4222 0.4222 0.9065 -320.1622 114.2852)" class="st6" width="42.4" height="42.4"/>
	<polygon class="st6" points="140.1,870.5 97.2,803.3 83.2,798.3 7.3,822.1 74.3,779.2 79.4,765.3 55.7,689.3 98.5,756.4 
		112.4,761.5 188.5,737.7 121.3,780.5 116.5,795.2 	"/>
	
		<rect x="87.6" y="758.7" transform="matrix(0.9065 -0.4222 0.4222 0.9065 -320.1622 114.2852)" class="st13" width="20.7" height="42.4"/>
	
		<rect x="87.6" y="758.7" transform="matrix(0.4222 0.9065 -0.9065 0.4222 763.5601 361.8378)" class="st13" width="20.7" height="42.4"/>
</g>
<g>
	
		<rect x="307.7" y="1200.7" transform="matrix(0.9507 0.3102 -0.3102 0.9507 395.252 -41.7567)" class="st6" width="42.4" height="42.4"/>
	<polygon class="st6" points="297.9,1316.9 312.4,1238.5 305.7,1225.3 233.9,1190.9 312.2,1205.3 325.4,1198.6 359.9,1126.9 
		345.4,1205.1 352.1,1218.4 423.9,1252.9 345.6,1238.3 332.1,1245.8 	"/>
	
		<rect x="318.6" y="1200.7" transform="matrix(0.9507 0.3102 -0.3102 0.9507 395.252 -41.7567)" class="st13" width="20.7" height="42.4"/>
	
		<rect x="318.6" y="1200.7" transform="matrix(-0.3102 0.9507 -0.9507 -0.3102 1592.6019 1288.2521)" class="st13" width="20.7" height="42.4"/>
</g>
<g>
	
		<rect x="807.7" y="1303.7" transform="matrix(0.6662 0.7458 -0.7458 0.6662 1264.743 -175.9415)" class="st6" width="42.4" height="42.4"/>
	<polygon class="st6" points="754.4,1391.5 806.3,1331 807.1,1316.1 762.4,1250.4 822.8,1302.2 837.6,1303 903.4,1258.4 
		851.6,1318.6 850.7,1333.5 895.5,1399.4 835.1,1347.5 819.7,1347.2 	"/>
	
		<rect x="818.6" y="1303.7" transform="matrix(0.6662 0.7458 -0.7458 0.6662 1264.743 -175.9415)" class="st13" width="20.7" height="42.4"/>
	
		<rect x="818.6" y="1303.7" transform="matrix(-0.7458 0.6662 -0.6662 -0.7458 2329.7869 1760.743)" class="st13" width="20.7" height="42.4"/>
</g>
<g>
	
		<rect x="1152.7" y="1180.7" transform="matrix(0.4157 -0.9095 0.9095 0.4157 -407.2289 1769.9652)" class="st6" width="42.4" height="42.4"/>
	<polygon class="st6" points="1264.8,1243.5 1188.5,1220.2 1174.6,1225.4 1132.4,1292.8 1155.5,1216.7 1150.4,1202.8 1083,1160.4 
		1159.1,1183.7 1173,1178.5 1215.5,1111 1192.1,1187.2 1198,1201.5 	"/>
	
		<rect x="1163.6" y="1180.7" transform="matrix(0.4157 -0.9095 0.9095 0.4157 -407.2289 1769.9652)" class="st13" width="20.7" height="42.4"/>
	
		<rect x="1163.6" y="1180.7" transform="matrix(0.9095 0.4157 -0.4157 0.9095 605.8801 -379.2289)" class="st13" width="20.7" height="42.4"/>
</g>
<g>
	
		<rect x="1325.7" y="718.7" transform="matrix(0.905 0.4255 -0.4255 0.905 442.8622 -502.8005)" class="st6" width="42.4" height="42.4"/>
	<polygon class="st6" points="1304.4,830.3 1328.5,754.3 1323.4,740.4 1256.5,697.4 1332.4,721.4 1346.3,716.3 1389.4,649.5 
		1365.3,725.3 1370.3,739.2 1437.3,782.4 1361.4,758.2 1347.1,764 	"/>
	
		<rect x="1336.6" y="718.7" transform="matrix(0.905 0.4255 -0.4255 0.905 442.8622 -502.8005)" class="st13" width="20.7" height="42.4"/>
	
		<rect x="1336.6" y="718.7" transform="matrix(-0.4255 0.905 -0.905 -0.4255 2589.6458 -164.1378)" class="st13" width="20.7" height="42.4"/>
</g>
<g>
	
		<rect x="1184.7" y="228.7" transform="matrix(0.9349 -0.3549 0.3549 0.9349 -10.1975 444.2484)" class="st6" width="42.4" height="42.4"/>
	<polygon class="st6" points="1241.4,343.3 1203.5,273.2 1189.9,267.1 1112.5,285.4 1182.5,247.5 1188.6,234 1170.5,156.5 
		1208.2,226.5 1221.7,232.6 1299.3,214.5 1229.2,252.2 1223.4,266.5 	"/>
	
		<rect x="1195.6" y="228.7" transform="matrix(0.9349 -0.3549 0.3549 0.9349 -10.1975 444.2484)" class="st13" width="20.7" height="42.4"/>
	
		<rect x="1195.6" y="228.7" transform="matrix(0.3549 0.9349 -0.9349 0.3549 1011.5968 -966.1975)" class="st13" width="20.7" height="42.4"/>
</g>
<g>
	
		<rect x="194.3" y="263.3" transform="matrix(0.8816 0.472 -0.472 0.8816 154.1746 -64.6691)" class="st6" width="23.4" height="23.4"/>
	<polygon class="st6" points="180,323.5 195.4,282.4 193.1,274.6 157.5,249 198.5,264.4 206.3,262 232,226.5 216.5,267.5 
		218.9,275.3 254.5,301 213.4,285.5 205.4,288.2 	"/>
	
		<rect x="200.3" y="263.3" transform="matrix(0.8816 0.472 -0.472 0.8816 154.1746 -64.6691)" class="st13" width="11.4" height="23.4"/>
	
		<rect x="200.3" y="263.3" transform="matrix(-0.472 0.8816 -0.8816 -0.472 545.6691 223.1746)" class="st13" width="11.4" height="23.4"/>
</g>
<g>
	<rect x="655.3" y="36.3" class="st6" width="23.4" height="23.4"/>
	<polygon class="st6" points="667,103 661.2,59.5 655.4,53.7 612,48 655.4,42.2 661.2,36.4 667,-7 672.7,36.4 678.5,42.2 722,48 
		678.5,53.7 672.7,60 	"/>
	<rect x="661.3" y="36.3" class="st13" width="11.4" height="23.4"/>
	
		<rect x="661.3" y="36.3" transform="matrix(-1.836970e-16 1 -1 -1.836970e-16 715 -619)" class="st13" width="11.4" height="23.4"/>
</g>
<g>
	
		<rect x="1123.3" y="155.3" transform="matrix(0.9248 -0.3804 0.3804 0.9248 21.8009 444.3119)" class="st6" width="23.4" height="23.4"/>
	<polygon class="st6" points="1155.9,217.9 1134,179.9 1126.5,176.7 1084.1,187.9 1122.1,166 1125.2,158.5 1114.1,116.1 
		1135.9,154.1 1143.4,157.2 1185.9,146.1 1147.8,167.9 1144.8,175.9 	"/>
	
		<rect x="1129.3" y="155.3" transform="matrix(0.9248 -0.3804 0.3804 0.9248 21.8009 444.3119)" class="st13" width="11.4" height="23.4"/>
	
		<rect x="1129.3" y="155.3" transform="matrix(0.3804 0.9248 -0.9248 0.3804 857.6882 -946.199)" class="st13" width="11.4" height="23.4"/>
</g>
<g>
	
		<rect x="1425.3" y="689.3" transform="matrix(0.962 0.2731 -0.2731 0.962 246.0279 -365.7499)" class="st6" width="23.4" height="23.4"/>
	<polygon class="st6" points="1422,753.9 1428.3,710.5 1424.3,703.3 1384.1,686 1427.4,692.2 1434.6,688.2 1452,648.1 1445.7,691.4 
		1449.7,698.5 1489.9,716 1446.5,709.7 1439.3,714.1 	"/>
	
		<rect x="1431.3" y="689.3" transform="matrix(0.962 0.2731 -0.2731 0.962 246.0279 -365.7499)" class="st13" width="11.4" height="23.4"/>
	
		<rect x="1431.3" y="689.3" transform="matrix(-0.2731 0.962 -0.962 -0.2731 2503.75 -489.9721)" class="st13" width="11.4" height="23.4"/>
</g>
<g>
	<rect x="1277.3" y="1210.3" class="st6" width="23.4" height="23.4"/>
	<polygon class="st6" points="1289,1277 1283.2,1233.5 1277.4,1227.7 1234,1222 1277.4,1216.2 1283.2,1210.4 1289,1167 
		1294.7,1210.4 1300.5,1216.2 1344,1222 1300.5,1227.7 1294.7,1234 	"/>
	<rect x="1283.3" y="1210.3" class="st13" width="11.4" height="23.4"/>
	
		<rect x="1283.3" y="1210.3" transform="matrix(-1.836970e-16 1 -1 -1.836970e-16 2511 -67)" class="st13" width="11.4" height="23.4"/>
</g>
<g>
	
		<rect x="828.3" y="1405.3" transform="matrix(0.9097 0.4152 -0.4152 0.9097 664.2324 -220.8629)" class="st6" width="23.4" height="23.4"/>
	<polygon class="st6" points="817.2,1467 829.9,1425.1 827.1,1417.4 790,1394.2 831.9,1406.9 839.5,1404 862.8,1367 850,1408.8 
		852.9,1416.5 890,1439.8 848.1,1427 840.3,1430.3 	"/>
	
		<rect x="834.3" y="1405.3" transform="matrix(0.9097 0.4152 -0.4152 0.9097 664.2324 -220.8629)" class="st13" width="11.4" height="23.4"/>
	
		<rect x="834.3" y="1405.3" transform="matrix(-0.4152 0.9097 -0.9097 -0.4152 2477.8628 1241.2324)" class="st13" width="11.4" height="23.4"/>
</g>
<g>
	
		<rect x="37.3" y="859.3" transform="matrix(0.9793 -0.2026 0.2026 0.9793 -175.4176 27.9824)" class="st6" width="23.4" height="23.4"/>
	<polygon class="st6" points="60.1,924.9 45.6,883.5 38.8,879 -4.9,882.1 36.5,867.6 40.9,860.8 37.9,817.1 52.3,858.5 59.1,863 
		102.9,859.9 61.4,874.3 57,881.5 	"/>
	
		<rect x="43.3" y="859.3" transform="matrix(0.9793 -0.2026 0.2026 0.9793 -175.4176 27.9824)" class="st13" width="11.4" height="23.4"/>
	
		<rect x="43.3" y="859.3" transform="matrix(0.2026 0.9793 -0.9793 0.2026 892.0176 646.5824)" class="st13" width="11.4" height="23.4"/>
</g>
<g>
	
		<rect x="242.3" y="1243.3" transform="matrix(0.9045 0.4264 -0.4264 0.9045 559.4286 11.5152)" class="st6" width="23.4" height="23.4"/>
	<polygon class="st6" points="230.5,1304.7 243.8,1262.9 241.1,1255.2 204.3,1231.5 246,1244.8 253.7,1242 277.5,1205.3 264.1,1247 
		266.9,1254.6 303.7,1278.5 262,1265.1 254.1,1268.3 	"/>
	
		<rect x="248.3" y="1243.3" transform="matrix(0.9045 0.4264 -0.4264 0.9045 559.4286 11.5152)" class="st13" width="11.4" height="23.4"/>
	
		<rect x="248.3" y="1243.3" transform="matrix(-0.4264 0.9045 -0.9045 -0.4264 1497.4847 1560.4287)" class="st13" width="11.4" height="23.4"/>
</g>
</svg>
